<svg width="30" height="30" viewBox="0 0 30 30" fill="none" xmlns="http://www.w3.org/2000/svg">
<path d="M15 13C16.93 13 18.5 11.4295 18.5 9.5C18.5 7.5705 16.93 6 15 6C13.07 6 11.5 7.5705 11.5 9.5C11.5 11.4295 13.07 13 15 13ZM15 7C16.3785 7 17.5 8.1215 17.5 9.5C17.5 10.8785 16.3785 12 15 12C13.6215 12 12.5 10.8785 12.5 9.5C12.5 8.1215 13.6215 7 15 7Z" fill="#5E1B7E"/>
<path d="M14.9118 27.3785L22.5823 16.3C25.4593 12.4645 25.0433 6.16 21.6918 2.809C19.8808 0.9975 17.4728 0 14.9118 0C12.3508 0 9.94276 0.9975 8.13176 2.8085C4.78026 6.1595 4.36426 12.464 7.22976 16.2845L14.9118 27.3785ZM8.83876 3.5155C10.4613 1.8935 12.6178 1 14.9118 1C17.2058 1 19.3623 1.8935 20.9848 3.5155C24.0098 6.54 24.3823 12.234 21.7713 15.715L14.9118 25.6215L8.04126 15.7C5.44126 12.234 5.81426 6.54 8.83876 3.5155Z" fill="#5E1B7E"/>
<path d="M21.0585 21.5039C20.7835 21.4704 20.5355 21.6674 20.5035 21.9419C20.4715 22.2164 20.6675 22.4649 20.9415 22.4969C26.1995 23.1159 29 24.7839 29 25.7504C29 27.1074 23.674 29.0004 15 29.0004C6.326 29.0004 1 27.1074 1 25.7504C1 24.7839 3.8005 23.1159 9.0585 22.4969C9.3325 22.4649 9.5285 22.2159 9.4965 21.9419C9.464 21.6674 9.216 21.4694 8.9415 21.5039C3.677 22.1239 0 23.8699 0 25.7504C0 27.8624 5.1525 30.0004 15 30.0004C24.8475 30.0004 30 27.8624 30 25.7504C30 23.8699 26.323 22.1239 21.0585 21.5039Z" fill="#5E1B7E"/>
</svg>
