<svg width="51" height="50" viewBox="0 0 51 50" fill="none" xmlns="http://www.w3.org/2000/svg">
<g clip-path="url(#clip0)">
<path d="M45.033 9.40667L40.8606 5.24C40.5812 4.96073 40.1441 4.91552 39.8133 5.13167L35.1769 8.16667L30.1774 6.08333L29.4105 0.715C29.3516 0.304583 28.9995 -0.00010414 28.5844 2.67013e-08H21.9085C21.4933 -0.00010414 21.1412 0.304583 21.0823 0.715L20.3146 6.08333L15.3201 8.16667L10.6829 5.13333C10.3521 4.91719 9.91494 4.9624 9.63559 5.24167L5.46313 9.40833C5.18316 9.68802 5.13851 10.1256 5.35632 10.4558L8.44393 15.1392L7.92655 16.3333L9.45868 16.995L10.1555 15.3883C10.2674 15.1302 10.2413 14.8331 10.0862 14.5983L7.1221 10.1067L10.3341 6.89917L14.7752 9.80417C15.0077 9.95448 15.2994 9.98135 15.5555 9.87583L21.3969 7.43333C21.6667 7.31917 21.8567 7.07219 21.8976 6.7825L22.632 1.66667H27.8609L28.5927 6.785C28.6336 7.07469 28.8237 7.32167 29.0934 7.43583L34.9349 9.87667C35.1906 9.98219 35.4821 9.95531 35.7143 9.805L40.1571 6.90167L43.3916 10.1317L41.2219 13.7983C41.0928 14.0157 41.0694 14.28 41.1585 14.5167L42.084 16.9575L43.6453 16.3675L42.8617 14.3017L45.1607 10.42C45.3547 10.0927 45.3022 9.67573 45.033 9.40667Z" fill="white"/>
<path d="M34.1812 31.9112L31.6777 29.4112C31.5213 29.2549 31.3091 29.167 31.0877 29.167H19.4049C19.1835 29.167 18.9713 29.2549 18.8149 29.4112L16.3114 31.9112C16.1549 32.0674 16.0669 32.2793 16.0669 32.5003V49.167C16.0669 49.6272 16.4405 50.0003 16.9014 50.0003H33.5912C34.0521 50.0003 34.4257 49.6272 34.4257 49.167V32.5003C34.4257 32.2793 34.3377 32.0674 34.1812 31.9112ZM28.0953 30.8337H30.7423L27.7498 33.822L26.4263 32.5003L28.0953 30.8337ZM26.5698 35.0003L25.4908 36.0778C25.3338 36.2338 25.2458 36.4458 25.2463 36.667C25.2447 36.448 25.1569 36.2385 25.0018 36.0837L23.9228 35.0003L25.2463 33.6787L26.5698 35.0003ZM25.7353 30.8337L25.2463 31.322L24.7573 30.8337H25.7353ZM22.3973 30.8337L24.0663 32.5003L22.7428 33.822L19.7503 30.8337H22.3973ZM22.0126 48.3337H17.7359V32.8453L18.5704 32.012L22.1528 35.5895L23.5298 36.9645L22.0126 48.3337ZM23.6966 48.3337L25.2388 36.777C25.2438 36.7419 25.2463 36.7066 25.2463 36.6712C25.2465 36.7246 25.252 36.7779 25.263 36.8303L27.5662 48.3337H23.6966ZM32.7567 48.3337H29.2685L26.987 36.9412L28.3398 35.5895L31.9222 32.012L32.7567 32.8453V48.3337Z" fill="white"/>
<path d="M31.0877 10.833H23.5773C20.8131 10.8357 18.573 13.0727 18.5703 15.833V20.833C18.5745 24.5132 21.5609 27.4955 25.2462 27.4997C28.9316 27.4955 31.918 24.5132 31.9222 20.833V11.6663C31.9222 11.2061 31.5485 10.833 31.0877 10.833ZM30.2532 20.833C30.2532 23.5945 28.0115 25.833 25.2462 25.833C22.4809 25.833 20.2393 23.5945 20.2393 20.833V17.4997H26.9152C28.1486 17.4994 29.3381 17.0421 30.2532 16.2163V20.833ZM26.9152 15.833H20.2393C20.2393 13.9921 21.7338 12.4997 23.5773 12.4997H30.2532C30.2532 14.3406 28.7587 15.833 26.9152 15.833Z" fill="white"/>
<path d="M50.0366 35.2442L47.5331 32.7442C47.3766 32.5879 47.1644 32.5 46.9431 32.5H40.2672C40.0458 32.5 39.8336 32.5879 39.6772 32.7442L37.1737 35.2442C37.0172 35.4004 36.9292 35.6123 36.9292 35.8333V49.1667C36.9292 49.6269 37.3028 50 37.7637 50H49.4466C49.9074 50 50.2811 49.6269 50.2811 49.1667V35.8333C50.2811 35.6123 50.193 35.4004 50.0366 35.2442ZM48.6121 48.3333H44.4396V35.8333H42.7706V48.3333H38.5982V36.1783L40.2672 34.5117L42.1807 36.4225L42.7706 35.8333L43.3606 35.2442L42.2816 34.1667H44.9946L43.8672 35.2258L44.4396 35.8333L45.0121 36.4408L47.0015 34.57L48.6121 36.1783V48.3333Z" fill="white"/>
<path d="M44.4396 18.333H42.7982C40.5012 18.3376 38.6381 20.1918 38.6257 22.4855L38.6123 26.658C38.6032 29.4148 40.8335 31.6571 43.5943 31.6663C43.5998 31.6663 43.6054 31.6663 43.6109 31.6663C46.3707 31.6631 48.6075 29.4306 48.6121 26.6747V22.4997C48.6094 20.1997 46.7428 18.3357 44.4396 18.333ZM40.2947 22.4913C40.2992 21.1246 41.402 20.0147 42.7706 19.9997C42.7707 21.3697 41.6666 22.4846 40.2947 22.4997V22.4913ZM46.9431 26.6722C46.9398 28.5076 45.4514 29.9951 43.6135 29.9997C41.7745 29.9997 40.2838 28.511 40.2838 26.6747C40.2838 26.6719 40.2838 26.6692 40.2838 26.6663L40.2922 24.1663C41.5967 24.1585 42.8225 23.5419 43.6051 22.4997C44.3931 23.5488 45.6298 24.1663 46.9431 24.1663V26.6722ZM44.4396 19.9997C45.8223 19.9997 46.9431 21.1189 46.9431 22.4997C45.5604 22.4997 44.4396 21.3804 44.4396 19.9997Z" fill="white"/>
<path d="M13.3188 35.2442L10.8153 32.7442C10.6588 32.5879 10.4467 32.5 10.2253 32.5H3.54939C3.32804 32.5 3.11587 32.5879 2.95941 32.7442L0.455932 35.2442C0.299465 35.4004 0.211426 35.6123 0.211426 35.8333V49.1667C0.211426 49.6269 0.585069 50 1.04592 50H12.7288C13.1896 50 13.5633 49.6269 13.5633 49.1667V35.8333C13.5633 35.6123 13.4753 35.4004 13.3188 35.2442ZM11.8943 48.3333H7.72185V35.8333H6.05287V48.3333H1.88041V36.1783L3.54939 34.5117L5.46288 36.4225L6.05287 35.8333L6.64285 35.2442L5.56385 34.1667H8.27679L7.14939 35.2258L7.72185 35.8333L8.29431 36.4408L10.2837 34.57L11.8943 36.1783V48.3333Z" fill="white"/>
<path d="M7.72181 18.333H6.08037C3.78343 18.3376 1.92032 20.1918 1.90791 22.4855L1.89456 26.658C1.88538 29.4148 4.11577 31.6571 6.87647 31.6663C6.882 31.6663 6.88763 31.6663 6.89316 31.6663C9.65293 31.6631 11.8897 29.4306 11.8943 26.6747V22.4997C11.8916 20.1997 10.025 18.3357 7.72181 18.333ZM7.72181 19.9997C8.7789 20.004 9.71938 20.671 10.0717 21.6663H8.5563C7.49921 21.662 6.55874 20.995 6.20638 19.9997H7.72181ZM4.38385 20.673V20.8255C4.38489 21.0473 4.29612 21.2601 4.13767 21.4155C4.02919 21.5209 3.89285 21.5932 3.74463 21.6238C3.88117 21.2618 4.10002 20.9363 4.38385 20.673ZM10.2253 26.6747C10.2207 28.5092 8.73269 29.9951 6.89567 29.9997C5.05676 29.9997 3.56605 28.511 3.56605 26.6747C3.56605 26.6719 3.56605 26.6692 3.56605 26.6663L3.57689 23.3263C4.2302 23.3227 4.85575 23.0619 5.31764 22.6005C5.4496 22.4671 5.56622 22.3196 5.66563 22.1605C6.43993 22.9117 7.47679 23.3322 8.5563 23.333H10.2253V26.6747Z" fill="white"/>
</g>
<defs>
<clipPath id="clip0">
<rect width="50.0695" height="50" fill="white" transform="translate(0.211426)"/>
</clipPath>
</defs>
</svg>
