<svg width="44" height="50" viewBox="0 0 44 50" fill="none" xmlns="http://www.w3.org/2000/svg">
<path d="M42.073 33.2309H40.8474V23.681C40.8474 23.5205 40.7946 23.3645 40.6971 23.2369L37.1716 18.6207C37.5145 18.1707 37.7184 17.6099 37.7184 17.0022C37.7184 15.5252 36.5151 14.3236 35.0361 14.3236C33.5571 14.3236 32.3538 15.5252 32.3538 17.0022C32.3538 18.4792 33.5571 19.6808 35.0361 19.6808C35.3754 19.6808 35.7 19.6168 35.9993 19.5015L39.3803 23.9286V33.231H35.8745V31.1076C35.8745 30.7031 35.5461 30.3752 35.141 30.3752C34.736 30.3752 34.4076 30.7031 34.4076 31.1076V33.231H31.2257V27.4966C31.2257 27.0921 30.8973 26.7642 30.4923 26.7642C30.0872 26.7642 29.7588 27.0921 29.7588 27.4966V33.231H25.3186L24.052 25.7584L24.4081 25.2231C24.7234 25.4467 25.0359 25.6054 25.4944 25.4909C25.8275 25.4077 26.1065 25.1839 26.2598 24.8771L28.0491 21.296L32.1351 22.8762C32.2465 22.9243 34.4077 23.893 34.4077 26.4279V27.6894C34.4077 28.0939 34.7361 28.4218 35.1411 28.4218C35.5462 28.4218 35.8746 28.0939 35.8746 27.6894V26.4279C35.8746 22.8685 32.8186 21.573 32.6885 21.5196C32.6839 21.5176 32.6792 21.5158 32.6745 21.514L25.758 18.8391V17.3691C26.842 16.5049 27.602 15.2519 27.8214 13.8226C28.3616 13.7614 28.8628 13.5488 29.2772 13.1928C29.8592 12.693 30.193 11.9658 30.193 11.1978C30.193 10.5791 29.9763 9.98713 29.5881 9.51916V7.40412C29.5881 3.32149 26.2619 0 22.1737 0C18.0855 0 14.7593 3.32149 14.7593 7.40412V9.57424C14.3669 10.0366 14.1546 10.6004 14.1546 11.1974C14.1546 11.9656 14.4884 12.6929 15.0705 13.1927C15.486 13.5495 15.9887 13.7624 16.5308 13.8229C16.7528 15.2166 17.5088 16.5555 18.7076 17.4594V18.839L11.7986 21.5138C11.794 21.5156 11.7894 21.5174 11.7848 21.5193C11.6547 21.5727 8.59876 22.8683 8.59876 26.4276V33.2307H5.09291V23.9283L8.47398 19.5012C8.77313 19.6165 9.0977 19.6805 9.43713 19.6805C10.9162 19.6805 12.1195 18.4788 12.1195 17.0019C12.1195 15.5249 10.9161 14.3233 9.43713 14.3233C7.95813 14.3233 6.75479 15.5249 6.75479 17.0019C6.75479 17.6096 6.95889 18.1705 7.30165 18.6204L3.77614 23.2366C3.67864 23.3642 3.62583 23.5203 3.62583 23.6807V33.2306H2.4004C1.50589 33.2306 0.77832 33.9572 0.77832 34.8505V38.6478C0.77832 39.5404 1.50482 40.2664 2.39835 40.2676V48.4745C2.39835 49.3156 3.08348 49.9998 3.92576 49.9998H20.5253C20.9304 49.9998 21.2587 49.6719 21.2587 49.2674C21.2587 48.8629 20.9304 48.535 20.5253 48.535H3.92566C3.89232 48.535 3.86523 48.5079 3.86523 48.4746V40.2678H40.6082V48.4746C40.6082 48.5079 40.5811 48.535 40.5478 48.535H23.9481C23.5431 48.535 23.2147 48.8629 23.2147 49.2674C23.2147 49.6719 23.5431 49.9998 23.9481 49.9998H40.5477C41.39 49.9998 42.0751 49.3156 42.0751 48.4745V40.2676C42.9686 40.2664 43.6951 39.5403 43.6951 38.6478V34.8507C43.6951 33.9575 42.9675 33.2309 42.073 33.2309ZM35.0363 18.2157C34.3662 18.2157 33.8209 17.6712 33.8209 17.002C33.8209 16.3327 34.3661 15.7883 35.0363 15.7883C35.7065 15.7883 36.2517 16.3327 36.2517 17.002C36.2517 17.6792 35.6922 18.2157 35.0363 18.2157ZM9.43713 15.7884C10.1073 15.7884 10.6525 16.3328 10.6525 17.0021C10.6525 17.6713 10.1073 18.2158 9.43713 18.2158C8.78124 18.2158 8.22177 17.6793 8.22177 17.0021C8.22177 16.3328 8.76706 15.7884 9.43713 15.7884ZM26.6752 20.7646L25.1001 23.9168C25.0951 23.9133 24.6243 23.5792 23.2949 22.6364C24.5574 21.0801 24.6188 21.0044 25.258 20.2165L26.6752 20.7646ZM22.2348 23.6815L23.2117 24.3742L22.8871 24.862H21.5825L21.2581 24.3743L22.2348 23.6815ZM20.1747 19.0764V18.2499C20.8466 18.4905 21.5723 18.5992 22.2449 18.5992C22.9594 18.5992 23.6765 18.4554 24.291 18.2156V19.0811L22.2348 21.6158L20.1747 19.0764ZM21.809 26.3269H22.6606L23.8308 33.2307H20.6388L21.809 26.3269ZM28.726 11.1974C28.726 11.5382 28.5783 11.8605 28.3207 12.0818C28.1938 12.1907 28.047 12.2706 27.8866 12.3196V10.0765C28.3912 10.2312 28.726 10.6828 28.726 11.1974ZM16.4612 12.3197C16.3008 12.2707 16.1539 12.1909 16.0272 12.0821C15.7694 11.8609 15.6217 11.5385 15.6217 11.1974C15.6217 10.8186 15.8345 10.5518 15.9841 10.4108C15.9866 10.4086 15.9891 10.4068 15.9916 10.4045C16.1274 10.2787 16.2894 10.1828 16.4612 10.1186V12.3197ZM16.8422 8.1091C16.6994 8.24123 16.5849 8.42433 16.5264 8.59377C16.4256 8.6089 16.3255 8.62961 16.2267 8.65549V7.40412H16.2264C16.2264 4.12921 18.8943 1.46494 22.1738 1.46494C25.4532 1.46494 28.1212 4.1293 28.1212 7.40412V8.6214C28.0438 8.60392 27.9651 8.59025 27.8857 8.57941C27.8782 8.31964 27.8162 8.16261 27.5724 7.86681C27.346 7.59259 26.938 7.17296 26.0013 6.16759C25.611 5.74864 24.971 5.66271 24.4811 5.98243C22.4793 7.28829 20.0225 7.95959 17.7383 7.79621C17.4108 7.7714 17.0839 7.88537 16.8422 8.1091ZM17.9281 12.9655V9.31223V9.27443C19.3082 9.33498 20.721 9.13459 22.063 8.71799C23.1195 8.39006 24.1431 7.92482 25.0854 7.33517C25.3537 7.62267 25.5751 7.85832 25.7578 8.05285C25.7701 8.06593 25.7816 8.07824 25.7937 8.09113C25.8592 8.16086 25.9219 8.22765 25.9802 8.28996C26.1805 8.50363 26.3351 8.67043 26.4194 8.76857V12.9655C26.4194 15.2671 24.5393 17.1343 22.2447 17.1343C19.7113 17.1343 17.9281 15.1876 17.9281 12.9655ZM19.2087 20.2176L21.1724 22.6381C20.3231 23.2405 19.4611 23.852 19.3695 23.917L17.7945 20.7647L19.2087 20.2176ZM10.0656 26.4277C10.0657 23.8964 12.2023 22.9346 12.3386 22.8759L16.4202 21.2957L18.2095 24.8769V24.877C18.4106 25.2792 18.8197 25.5257 19.2603 25.5257C19.664 25.5257 19.9022 25.3356 20.0612 25.2228L20.4173 25.7581L19.1507 33.2307H14.7146V27.4963C14.7146 27.0919 14.3862 26.7639 13.9811 26.7639C13.5761 26.7639 13.2477 27.0919 13.2477 27.4963V33.2307H10.0657V26.4277H10.0656ZM42.2281 38.648C42.2281 38.7335 42.1586 38.8029 42.073 38.8029C41.0237 38.8029 3.28737 38.8029 2.4003 38.8029C2.31473 38.8029 2.2452 38.7334 2.2452 38.648V34.8507C2.2452 34.7652 2.31473 34.6958 2.4003 34.6958C3.69859 34.6958 41.093 34.6958 42.073 34.6958C42.1586 34.6958 42.2281 34.7652 42.2281 34.8507V38.648Z" fill="white"/>
</svg>
