<svg width="51" height="50" viewBox="0 0 51 50" fill="none" xmlns="http://www.w3.org/2000/svg">
<g clip-path="url(#clip0)">
<path d="M49.3602 13.1301C49.3601 13.1301 49.3601 13.1301 49.36 13.1301L49.3583 13.1285L46.1265 12.668C45.6722 12.6034 45.3564 12.1833 45.4211 11.7297C45.4522 11.5117 45.5688 11.315 45.7451 11.1829L48.3572 9.22661C48.7243 8.95168 48.7986 8.4317 48.5233 8.0651L45.5324 4.08277C45.2571 3.71616 44.7364 3.64191 44.3693 3.91684L41.7581 5.87316C41.3925 6.15016 40.8714 6.07881 40.594 5.71376C40.4593 5.53652 40.4016 5.31262 40.4338 5.09245L40.8957 1.86511C40.9608 1.4115 40.6454 0.991174 40.1913 0.926046C40.191 0.926046 40.1907 0.925942 40.1904 0.925942L35.2587 0.222398C34.8046 0.15727 34.3834 0.472123 34.3182 0.925735C34.3182 0.925839 34.3182 0.925839 34.3182 0.925942L33.8563 4.15329C33.7916 4.6069 33.3709 4.92227 32.9166 4.85766C32.6983 4.82665 32.5014 4.71019 32.3691 4.5341L30.4109 1.92567C30.1356 1.55907 29.6149 1.48482 29.2478 1.75974L26.7512 3.63061C25.6217 3.51072 24.4827 3.51072 23.3532 3.63061C15.9564 4.47488 10.1558 10.3656 9.43473 17.7654C9.4123 18.0002 9.40399 18.2333 9.39236 18.4664H9.14312C8.7489 18.4672 8.40941 18.7445 8.33059 19.1302L7.7565 21.8564L5.45683 20.2726C5.12679 20.0452 4.68107 20.0857 4.39755 20.3688L1.90514 22.8578C1.62204 23.1408 1.58154 23.5853 1.80876 23.9148L3.38729 26.2071L0.656434 26.7804C0.27447 26.864 0.00258906 27.2022 0.00341987 27.5926V30.9112C0.00321217 31.3036 0.278521 31.6426 0.66308 31.7234L3.39394 32.2967L1.81541 34.5891C1.58818 34.9185 1.62868 35.363 1.91178 35.646L4.4042 38.135C4.68771 38.4181 5.13344 38.4587 5.46348 38.2312L7.759 36.6507L8.33308 39.3778C8.41191 39.7635 8.75139 40.0408 9.14561 40.0415H12.4688C12.8618 40.0417 13.2012 39.7668 13.2822 39.3828L13.8563 36.6557L16.1518 38.2321C16.4817 38.459 16.9268 38.4185 17.2102 38.1358L18.5005 36.8432V39.2077C18.5042 40.388 19.1374 41.4768 20.1621 42.0651V46.6746C20.1621 48.5074 21.65 49.9932 23.4853 49.9932H26.8086C28.6439 49.9932 30.1318 48.5074 30.1318 46.6746V42.0651C31.1565 41.4768 31.7897 40.388 31.7934 39.2077V35.924C31.8159 34.5423 32.5398 33.2667 33.715 32.5373C34.4045 32.0907 35.0584 31.5913 35.6708 31.044L34.5625 29.8078C34.0147 30.2981 33.4294 30.745 32.812 31.1444C31.1623 32.1783 30.1524 33.9791 30.1318 35.924V39.2077C30.1318 40.1242 29.3879 40.867 28.4702 40.867H21.8237C20.906 40.867 20.1621 40.1242 20.1621 39.2077V35.8551C20.1429 33.947 19.1489 32.181 17.5268 31.1726C10.9419 27.0407 8.95795 18.3606 13.0956 11.7848C15.6628 7.70492 20.1431 5.22167 24.9683 5.20446C24.956 5.23401 24.9451 5.26419 24.9359 5.29489C24.9051 5.51267 24.9622 5.73388 25.0946 5.90966L27.0528 8.51726C27.2593 8.78409 27.2791 9.15059 27.1027 9.43817C26.9328 9.72751 26.6043 9.88535 26.2719 9.83723L23.04 9.37595C22.5858 9.31092 22.1649 9.62588 22.0996 10.0794C22.0996 10.0797 22.0995 10.08 22.0995 10.0803L21.3942 15.0076C21.3291 15.4611 21.6445 15.8816 22.0986 15.9467C22.0989 15.9467 22.0992 15.9468 22.0995 15.9468L25.3314 16.4081C25.7856 16.4727 26.1014 16.8928 26.0367 17.3464C26.0057 17.5644 25.8891 17.761 25.7127 17.8932L23.1015 19.8486C22.7344 20.1236 22.66 20.6436 22.9353 21.0102L25.9262 24.9925C26.2015 25.3591 26.7223 25.4333 27.0894 25.1584L29.7014 23.2029C30.0688 22.9285 30.5896 23.0035 30.8643 23.3705C30.9958 23.5461 31.0524 23.7666 31.0216 23.9836L30.5605 27.211C30.4953 27.6645 30.8106 28.085 31.2648 28.1501C31.2649 28.1501 31.2649 28.1501 31.265 28.1501L36.2 28.8545C36.2388 28.8595 36.278 28.862 36.3171 28.862C36.7308 28.8625 37.0817 28.5591 37.1405 28.1501L37.6016 24.9228C37.6663 24.4692 38.087 24.1538 38.5412 24.2184C38.7595 24.2494 38.9564 24.3659 39.0887 24.542L41.0477 27.1496C41.3231 27.5162 41.8438 27.5904 42.2109 27.3155L46.1987 24.3288C46.5659 24.0538 46.6402 23.5338 46.3649 23.1672L44.4067 20.5597C44.2012 20.2924 44.1813 19.9265 44.3568 19.6387C44.5231 19.3456 44.8546 19.1867 45.1877 19.2405L48.4195 19.701C48.8736 19.7661 49.2947 19.4511 49.36 18.9976C49.36 18.9975 49.36 18.9975 49.36 18.9974L50.0645 14.0693C50.1297 13.6157 49.8144 13.1952 49.3602 13.1301ZM21.8237 42.5263H28.4702V44.1856H21.8237V42.5263ZM21.8237 45.8449H28.4702V46.6746C28.4702 47.5911 27.7263 48.3339 26.8086 48.3339H23.4853C22.5676 48.3339 21.8237 47.5911 21.8237 46.6746V45.8449ZM15.2097 31.5376C15.6633 31.908 16.1373 32.253 16.6295 32.5705C17.4145 33.0659 18.0054 33.8154 18.3036 34.6936L16.5215 36.4699L14.7959 35.2818C14.0403 34.7618 13.0056 34.952 12.4848 35.7066C12.36 35.8876 12.2724 36.0915 12.2271 36.3064L11.7917 38.3781H9.8169L9.38156 36.3098C9.19255 35.413 8.31138 34.839 7.41338 35.0277C7.1981 35.073 6.99393 35.1605 6.81271 35.2851L5.08629 36.4699L3.57256 34.9616L4.76145 33.2392C5.28268 32.485 5.09284 31.4516 4.33753 30.9311C4.15621 30.8062 3.95183 30.7184 3.73623 30.6731L1.66503 30.2375V28.2663L3.73623 27.8307C4.63392 27.6406 5.20738 26.7598 5.01702 25.8633C4.97185 25.6506 4.88534 25.4489 4.76228 25.2696L3.57256 23.5422L5.08629 22.0339L6.81354 23.222C7.56947 23.7415 8.60413 23.5506 9.12432 22.7958C9.24894 22.615 9.33639 22.4113 9.38156 22.1966L9.52695 21.5063C9.66009 22.4622 9.88056 23.4039 10.1858 24.3196C7.45212 24.6451 5.50024 27.122 5.82613 29.8519C6.15201 32.5817 8.63238 34.5309 11.366 34.2055C13.0117 34.0094 14.4522 33.0096 15.2097 31.5376ZM13.9194 30.3686C13.299 32.0907 11.3982 32.9844 9.6738 32.365C7.94935 31.7454 7.05437 29.8473 7.67467 28.1252C8.14927 26.8079 9.40181 25.9304 10.8038 25.9333C10.8146 25.9333 10.8246 25.9333 10.8354 25.9333C11.5994 27.5784 12.6428 29.0789 13.9194 30.3686ZM47.828 17.9388L45.4186 17.5953C44.0559 17.401 42.7935 18.3467 42.5989 19.7074C42.5054 20.3608 42.6757 21.0247 43.0724 21.5527L44.5321 23.4966L41.8736 25.4878L40.413 23.5447C39.5872 22.4449 38.025 22.2219 36.9237 23.0465C36.3949 23.4425 36.0453 24.0321 35.9516 24.6855L35.6151 27.0948L32.3259 26.6252L32.6699 24.2192C32.865 22.8585 31.9185 21.5974 30.5559 21.4027C29.9011 21.309 29.2361 21.4791 28.7069 21.8755L26.7604 23.3332L24.7664 20.6783L26.7122 19.2198C27.8135 18.3951 28.0369 16.835 27.2111 15.7353C26.8146 15.2073 26.2242 14.8581 25.5698 14.7645L23.1605 14.4211L23.6307 11.1365L26.0401 11.4799C27.4027 11.6748 28.6655 10.7296 28.8605 9.36889C28.9543 8.71502 28.784 8.05089 28.3871 7.5225L26.9224 5.57697L29.581 3.58581L31.0415 5.52968C31.8673 6.62949 33.4296 6.85256 34.5308 6.02789C35.0596 5.63193 35.4093 5.04236 35.5029 4.38891L35.8469 1.98292L39.1361 2.45167L38.7921 4.85766C38.5975 6.2185 39.5444 7.47915 40.9071 7.6735C41.5615 7.76684 42.2262 7.59676 42.7551 7.2006L44.7016 5.7429L46.6956 8.39779L44.749 9.85631C43.6477 10.681 43.4243 12.241 44.2501 13.3407C44.6466 13.8688 45.237 14.218 45.8913 14.3115L48.3007 14.655L47.828 17.9388Z" fill="white"/>
<path d="M35.728 7.89941C32.0573 7.89941 29.0815 10.871 29.0815 14.5366C29.0815 18.2022 32.0573 21.1738 35.728 21.1738C39.3987 21.1738 42.3744 18.2022 42.3744 14.5366C42.3703 10.8727 39.397 7.90346 35.728 7.89941ZM35.728 19.5145C32.9749 19.5145 30.7432 17.2859 30.7432 14.5366C30.7432 11.7874 32.9749 9.55872 35.728 9.55872C38.4811 9.55872 40.7128 11.7874 40.7128 14.5366C40.7096 17.2845 38.4797 19.5113 35.728 19.5145Z" fill="white"/>
<path d="M25.978 36.7188H24.3164V39.2077H25.978V36.7188Z" fill="white"/>
<path d="M21.5132 28.5705C16.3845 26.5698 13.851 20.796 15.8546 15.6745C16.631 13.69 18.0244 12.0065 19.8299 10.8715L18.9418 9.46777C13.5067 12.8871 11.8763 20.0589 15.3004 25.4865C16.6265 27.5885 18.5926 29.2106 20.91 30.1145C22.9613 30.8993 24.3158 32.8656 24.3163 35.0592H25.9779C25.9805 32.1811 24.2045 29.6 21.5132 28.5705Z" fill="white"/>
<path d="M46.7483 30.9111H40.9326V32.5704H46.7483V30.9111Z" fill="white"/>
<path d="M40.6339 35.2509L39.5698 36.5254L44.5564 40.6713L45.6205 39.3968L40.6339 35.2509Z" fill="white"/>
<path d="M37.6094 37.5479H35.9478V43.3554H37.6094V37.5479Z" fill="white"/>
<path d="M7.4988 12.6839L0.852539 14.3418L1.25554 15.9506L7.9018 14.2927L7.4988 12.6839Z" fill="white"/>
<path d="M3.19806 4.51734L2.23193 5.86621L8.04983 10.0102L9.01596 8.66136L3.19806 4.51734Z" fill="white"/>
<path d="M10.9604 0.00722698L9.35059 0.417969L11.0509 7.05438L12.6607 6.64364L10.9604 0.00722698Z" fill="white"/>
</g>
<defs>
<clipPath id="clip0">
<rect width="50.0696" height="50" fill="white" transform="translate(0.00341797)"/>
</clipPath>
</defs>
</svg>
