<svg width="51" height="50" viewBox="0 0 51 50" fill="none" xmlns="http://www.w3.org/2000/svg">
<path fill-rule="evenodd" clip-rule="evenodd" d="M33.6661 9.41406H28.9526C28.1423 9.41406 27.4857 10.0702 27.4857 10.8789C27.4857 11.688 28.1423 12.3438 28.9526 12.3438H30.1249L26.7736 15.6904H22.6679C22.2786 15.6904 21.9058 15.8445 21.6308 16.1195L18.4881 19.2575C17.9154 19.8293 17.9154 20.7571 18.4881 21.3289C19.0611 21.9011 19.9897 21.9011 20.5627 21.3289L23.2753 18.6201H27.3814C27.7703 18.6201 28.1435 18.4656 28.4185 18.1909L32.1992 14.4155V15.5862C32.1992 16.395 32.8558 17.0511 33.6661 17.0511C34.4763 17.0511 35.1329 16.395 35.1329 15.5862V10.8789C35.1329 10.0702 34.4763 9.41406 33.6661 9.41406Z" fill="white"/>
<path fill-rule="evenodd" clip-rule="evenodd" d="M46.1313 20.472C46.1313 1.79405 29.706 0 26.9243 0C16.3016 0 9.41724 9.21288 9.41724 16.3963V19.006C8.54552 20.1248 6.05488 23.3227 4.86953 24.8447C4.25604 25.6325 3.91797 26.6159 3.91797 27.6138C3.91797 29.4872 5.04334 31.1478 6.78603 31.8447L8.15397 32.391L10.37 38.5868C11.4686 41.6595 14.4023 43.7241 17.67 43.7241H19.9513L21.2447 48.8907C21.4082 49.5426 21.995 50 22.6681 50H41.5221C41.9824 50 42.4163 49.7841 42.6933 49.4171C42.9706 49.0505 43.0592 48.5748 42.9328 48.1327L39.9368 37.661L44.8015 26.73C45.6839 24.7467 46.1313 22.6414 46.1313 20.472ZM42.1207 25.5402L37.0393 36.9572C36.8999 37.2711 36.875 37.624 36.9694 37.9543L39.5777 47.0703H23.8133L22.5198 41.9037C22.3567 41.2518 21.77 40.7944 21.0969 40.7944H17.67C15.6389 40.7944 13.8156 39.5111 13.1326 37.6015L10.6943 30.7835C10.5529 30.3879 10.2481 30.0716 9.85731 29.916L7.87587 29.1245C6.85975 28.7182 6.54193 27.4689 7.18522 26.6438C8.42213 25.0549 11.0793 21.6434 11.8372 20.6703C12.1684 20.2446 12.351 19.7136 12.351 19.175V16.3963C12.351 12.4615 16.5255 2.92969 26.9258 2.92969C29.2301 2.92969 43.1975 4.3293 43.1975 20.472C43.1975 22.229 42.8354 23.9342 42.1207 25.5402Z" fill="white"/>
</svg>
