<svg width="30" height="30" viewBox="0 0 30 30" fill="none" xmlns="http://www.w3.org/2000/svg">
<g clip-path="url(#clip0)">
<path d="M29.2128 23.1443L23.1407 19.0949C22.3701 18.5851 21.3372 18.7529 20.7675 19.4803L18.9988 21.7545C18.7715 22.0542 18.3582 22.1411 18.0294 21.9585L17.693 21.773C16.5776 21.165 15.1899 20.4082 12.3938 17.6111C9.59768 14.814 8.83929 13.4252 8.23136 12.3119L8.04687 11.9755C7.86168 11.6467 7.94698 11.2317 8.24682 11.0026L10.5195 9.23438C11.2466 8.66464 11.4146 7.63202 10.9054 6.86121L6.85601 0.789105C6.3342 0.00418283 5.28728 -0.231446 4.47945 0.254165L1.94032 1.77943C1.14251 2.24846 0.557184 3.00807 0.307084 3.89909C-0.607253 7.23059 0.0805938 12.9802 8.55035 21.451C15.2879 28.188 20.3036 29.9997 23.7511 29.9997C24.5445 30.0031 25.3349 29.8999 26.1008 29.6928C26.992 29.443 27.7517 28.8576 28.2205 28.0596L29.7472 25.522C30.2336 24.714 29.998 23.6664 29.2128 23.1443ZM28.8858 25.009L27.3625 27.5481C27.026 28.1241 26.4795 28.5476 25.8377 28.73C22.7622 29.5743 17.389 28.875 9.25771 20.7436C1.1264 12.6123 0.427066 7.23961 1.27145 4.1636C1.454 3.52104 1.87804 2.97392 2.45475 2.63682L4.99389 1.11355C5.3444 0.902643 5.79879 1.00487 6.02522 1.34549L8.22491 4.64799L10.0712 7.41707C10.2923 7.75141 10.2196 8.19953 9.90419 8.44693L7.63103 10.2151C6.93926 10.7441 6.74171 11.7012 7.16763 12.4608L7.34813 12.7888C7.98706 13.9606 8.78141 15.4184 11.6815 18.318C14.5816 21.2175 16.0389 22.012 17.2102 22.6508L17.5386 22.8318C18.2981 23.2576 19.2553 23.0602 19.7843 22.3684L21.5525 20.0952C21.7999 19.78 22.2479 19.7074 22.5824 19.9283L28.6539 23.9777C28.9948 24.2039 29.097 24.6585 28.8858 25.009Z" fill="#5E1B7E"/>
<path d="M16.9989 5.00274C21.6905 5.00796 25.4924 8.80995 25.4977 13.5015C25.4977 13.7776 25.7215 14.0014 25.9976 14.0014C26.2737 14.0014 26.4975 13.7776 26.4975 13.5015C26.4917 8.25796 22.2425 4.00867 16.9989 4.00293C16.7228 4.00293 16.499 4.22672 16.499 4.50284C16.499 4.77895 16.7228 5.00274 16.9989 5.00274Z" fill="#5E1B7E"/>
<path d="M16.9989 8.00176C20.0346 8.00534 22.4946 10.4653 22.4981 13.501C22.4981 13.7771 22.722 14.0009 22.998 14.0009C23.2741 14.0009 23.4979 13.7771 23.4979 13.501C23.4938 9.91334 20.5865 7.00605 16.9989 7.00195C16.7228 7.00195 16.499 7.22575 16.499 7.50186C16.499 7.77797 16.7228 8.00176 16.9989 8.00176Z" fill="#5E1B7E"/>
<path d="M16.9989 11.0018C18.3787 11.0034 19.4969 12.1216 19.4986 13.5014C19.4986 13.7775 19.7224 14.0013 19.9985 14.0013C20.2745 14.0013 20.4984 13.7775 20.4984 13.5014C20.4962 11.5696 18.9307 10.0041 16.9989 10.002C16.7228 10.002 16.499 10.2257 16.499 10.5019C16.499 10.778 16.7228 11.0018 16.9989 11.0018Z" fill="#5E1B7E"/>
</g>
<defs>
<clipPath id="clip0">
<rect width="30" height="30" fill="white"/>
</clipPath>
</defs>
</svg>
