<svg width="81" height="78" viewBox="0 0 81 78" fill="none" xmlns="http://www.w3.org/2000/svg">
<g filter="url(#filter0_dd)">
<path d="M65.4359 6.11442H59.8945C59.2804 6.11442 58.7822 6.54499 58.7822 7.07569C58.7822 7.60664 59.2804 8.03695 59.8945 8.03695H60.582V61.118H19.0554V8.03695H23.685V10.2206C23.685 11.8946 25.2605 13.2561 27.1975 13.2561H32.4564C32.9823 15.7645 35.5284 17.6724 38.5792 17.6724H41.0576C44.1081 17.6724 46.6542 15.7645 47.1801 13.2561H52.439C54.3763 13.2561 55.9524 11.8943 55.9524 10.2206V6.07206C55.9524 4.39806 54.3763 3.03627 52.4393 3.03627H27.1975C25.2605 3.03627 23.685 4.39806 23.685 6.07206V6.11442H14.2009C11.7546 6.11442 9.76465 7.83463 9.76465 9.94792V48.5376C9.76465 49.0689 10.2626 49.4989 10.877 49.4989C11.4908 49.4989 11.9893 49.0689 11.9893 48.5376V9.94792C11.9893 8.89449 12.9822 8.03695 14.2009 8.03695H16.8301V62.0785C16.8301 62.6097 17.3287 63.0398 17.9425 63.0398H61.6943C62.309 63.0398 62.8067 62.6097 62.8067 62.0785V8.03695H65.4359C66.6555 8.03695 67.6472 8.89449 67.6472 9.94792V64.827C67.6472 65.8812 66.6555 66.7388 65.4359 66.7388H14.2009C12.9822 66.7388 11.9893 65.8812 11.9893 64.827V53.0687C11.9893 52.5383 11.4908 52.1075 10.877 52.1075C10.2626 52.1075 9.76465 52.5383 9.76465 53.0687V64.827C9.76465 66.9413 11.7546 68.6613 14.2009 68.6613H65.4359C67.8822 68.6613 69.8719 66.9413 69.8719 64.827V9.94792C69.8719 7.83463 67.8822 6.11442 65.4359 6.11442ZM25.9096 6.07206C25.9096 5.45817 26.4872 4.95906 27.1975 4.95906H52.4393C53.1496 4.95906 53.7272 5.45817 53.7272 6.07206V10.2206C53.7272 10.8345 53.1496 11.3336 52.4393 11.3336H46.1682C45.5535 11.3336 45.0559 11.7642 45.0559 12.2949C45.0559 14.2002 43.262 15.7499 41.0576 15.7499H38.5792C36.3748 15.7499 34.5812 14.2002 34.5812 12.2949C34.5812 11.7642 34.0833 11.3336 33.4689 11.3336H27.1975C26.4872 11.3336 25.9096 10.8345 25.9096 10.2206V6.07206Z" fill="white"/>
<path d="M53.9875 29.3396H48.106L44.3465 20.4684C43.9734 19.5865 42.4933 19.6463 42.2244 20.5624L38.1866 34.3018L34.2884 24.5014C33.9768 23.7181 32.7361 23.6208 32.2664 24.3438L29.0233 29.3401H25.6489C25.034 29.3401 24.5366 29.7702 24.5366 30.3014C24.5366 30.8321 25.034 31.2626 25.6489 31.2626H29.6749C30.0774 31.2626 30.4482 31.0747 30.6455 30.7715L32.9916 27.1557L37.2947 37.9735C37.653 38.8744 39.1539 38.8213 39.4249 37.8978L43.4954 24.0493L46.2842 30.6315C46.4443 31.0102 46.8614 31.2621 47.3288 31.2621H53.9872C54.6019 31.2621 55.0996 30.8321 55.0996 30.3008C55.0996 29.7702 54.6019 29.3396 53.9875 29.3396Z" fill="white"/>
<path d="M53.9876 45.1922H25.6489C25.0346 45.1922 24.5366 45.6223 24.5366 46.1535C24.5366 46.6845 25.0346 47.1148 25.6489 47.1148H53.9876C54.602 47.1148 55.0999 46.6845 55.0999 46.1535C55.0999 45.6223 54.602 45.1922 53.9876 45.1922Z" fill="white"/>
<path d="M53.9876 53.6613H25.6489C25.0346 53.6613 24.5366 54.0919 24.5366 54.6226C24.5366 55.1535 25.0346 55.5838 25.6489 55.5838H53.9876C54.602 55.5838 55.0999 55.1535 55.0999 54.6226C55.0999 54.0919 54.602 53.6613 53.9876 53.6613Z" fill="white"/>
</g>
<defs>
<filter id="filter0_dd" x="-3" y="-2" width="93" height="82" filterUnits="userSpaceOnUse" color-interpolation-filters="sRGB">
<feFlood flood-opacity="0" result="BackgroundImageFix"/>
<feColorMatrix in="SourceAlpha" type="matrix" values="0 0 0 0 0 0 0 0 0 0 0 0 0 0 0 0 0 0 127 0"/>
<feOffset dx="3" dy="3"/>
<feGaussianBlur stdDeviation="3"/>
<feColorMatrix type="matrix" values="0 0 0 0 0 0 0 0 0 0 0 0 0 0 0 0 0 0 0.99 0"/>
<feBlend mode="normal" in2="BackgroundImageFix" result="effect1_dropShadow"/>
<feColorMatrix in="SourceAlpha" type="matrix" values="0 0 0 0 0 0 0 0 0 0 0 0 0 0 0 0 0 0 127 0"/>
<feOffset dx="3" dy="3"/>
<feGaussianBlur stdDeviation="2"/>
<feColorMatrix type="matrix" values="0 0 0 0 0 0 0 0 0 0 0 0 0 0 0 0 0 0 1 0"/>
<feBlend mode="normal" in2="effect1_dropShadow" result="effect2_dropShadow"/>
<feBlend mode="normal" in="SourceGraphic" in2="effect2_dropShadow" result="shape"/>
</filter>
</defs>
</svg>
