<svg width="109" height="82" viewBox="0 0 109 82" fill="none" xmlns="http://www.w3.org/2000/svg">
<g filter="url(#filter0_dd)">
<path d="M98.3403 36.5455H90.134C93.5456 28.9091 93.1768 22.7273 91.8859 18.5455C89.673 11.0909 82.2044 3 71.1397 3C68.1892 3 65.2386 3.54545 62.1958 4.63636C56.9401 6.54545 53.4363 8.63636 51.8688 9.72727C50.3013 8.63636 46.8897 6.54545 41.5418 4.63636C38.4991 3.54545 35.4563 3 32.5979 3C21.5333 3 14.0646 11.0909 11.8517 18.5455C10.5608 23 10.0998 29.7273 14.4335 38.1818H4.47529C3.64544 38.1818 3 38.8182 3 39.6364C3 40.4545 3.64544 41.0909 4.47529 41.0909H16.1854C16.6464 41.9091 17.1996 42.7273 17.8451 43.5455C27.4344 57.1818 48.2728 72 52.0532 72.9091V73C52.0532 73 52.1454 73 52.2376 72.9091C52.3299 72.9091 52.4221 72.9091 52.5143 72.9091V72.8182C55.7414 71.2727 75.75 58.5455 86.2614 43.4545C87.2757 42.0909 88.1055 40.7273 88.8432 39.3636H98.5247C99.3546 39.3636 100 38.7273 100 37.9091C100 37.0909 99.1702 36.5455 98.3403 36.5455ZM83.5875 41.9091C73.8137 56 55.8337 67.3636 51.961 69.8182C47.9962 67.3636 30.1084 55.9091 20.2424 41.9091C20.058 41.6364 19.8736 41.3636 19.6892 41.0909H33.2433C33.7966 41.0909 34.3498 40.8182 34.6264 40.2727L40.8042 28.2727L50.4857 52.7273C50.6702 53.2727 51.3156 53.6364 51.8688 53.6364C51.8688 53.6364 51.8688 53.6364 51.961 53.6364C52.6065 53.6364 53.1597 53.1818 53.3441 52.5455L61.827 23.9091L66.3451 38.3636C66.5295 38.9091 66.9905 39.2727 67.5437 39.3636C68.097 39.4545 68.6502 39.1818 69.019 38.7273L72.615 33.5455L75.6578 38.6364C75.9344 39.0909 76.3954 39.3636 76.9487 39.3636H85.2471C84.6939 40.2727 84.1407 41.0909 83.5875 41.9091ZM86.9068 36.5455H77.8707L74.0903 30.1818C73.8137 29.7273 73.3527 29.4545 72.7994 29.4545C72.2462 29.4545 71.7852 29.6364 71.5086 30.0909L68.3736 34.6364L63.3023 18.3636C63.1179 17.7273 62.4724 17.3636 61.827 17.2727C61.1816 17.2727 60.5361 17.7273 60.3517 18.3636L51.7766 47.5455L42.4639 24.0909C42.2795 23.5455 41.7262 23.1818 41.173 23.1818C40.5276 23.1818 40.0665 23.4545 39.7899 24L32.5057 38.0909H17.8451C14.1568 31.4545 13.1426 25.0909 14.8023 19.3636C16.7386 12.9091 23.1008 6 32.6901 6C35.2719 6 37.9458 6.54545 40.6198 7.45455C47.3508 9.90909 50.9468 12.7273 51.039 12.7273C51.5922 13.1818 52.3298 13.1818 52.8831 12.7273C52.8831 12.7273 56.4791 9.90909 63.3023 7.45455C65.9762 6.45455 68.6502 6 71.2319 6C80.7291 6 87.1835 12.9091 89.1198 19.3636C90.6873 24.6364 89.8574 30.4545 86.9068 36.5455Z" fill="white"/>
</g>
<defs>
<filter id="filter0_dd" x="0" y="0" width="109" height="82" filterUnits="userSpaceOnUse" color-interpolation-filters="sRGB">
<feFlood flood-opacity="0" result="BackgroundImageFix"/>
<feColorMatrix in="SourceAlpha" type="matrix" values="0 0 0 0 0 0 0 0 0 0 0 0 0 0 0 0 0 0 127 0"/>
<feOffset dx="3" dy="3"/>
<feGaussianBlur stdDeviation="3"/>
<feColorMatrix type="matrix" values="0 0 0 0 0 0 0 0 0 0 0 0 0 0 0 0 0 0 0.99 0"/>
<feBlend mode="normal" in2="BackgroundImageFix" result="effect1_dropShadow"/>
<feColorMatrix in="SourceAlpha" type="matrix" values="0 0 0 0 0 0 0 0 0 0 0 0 0 0 0 0 0 0 127 0"/>
<feOffset dx="3" dy="3"/>
<feGaussianBlur stdDeviation="2"/>
<feColorMatrix type="matrix" values="0 0 0 0 0 0 0 0 0 0 0 0 0 0 0 0 0 0 1 0"/>
<feBlend mode="normal" in2="effect1_dropShadow" result="effect2_dropShadow"/>
<feBlend mode="normal" in="SourceGraphic" in2="effect2_dropShadow" result="shape"/>
</filter>
</defs>
</svg>
