<svg width="82" height="82" viewBox="0 0 82 82" fill="none" xmlns="http://www.w3.org/2000/svg">
<g filter="url(#filter0_dd)">
<path d="M54.0821 8.20205C54.2199 7.92489 54.2423 7.60446 54.1435 7.31074C54.0453 7.01755 53.8343 6.7751 53.5572 6.63732C43.7538 1.7877 32.249 1.7877 22.4456 6.63732C21.9612 6.87924 21.7065 7.42182 21.8304 7.94892C21.9543 8.47602 22.4248 8.84824 22.9658 8.84824C23.1457 8.84931 23.323 8.80979 23.4849 8.73182C32.6335 4.20637 43.3693 4.20637 52.5179 8.73182C52.7956 8.86907 53.1166 8.89043 53.4098 8.7911C53.7035 8.69177 53.9454 8.47975 54.0821 8.20205Z" fill="white"/>
<path d="M67.7999 21.9194C67.5227 22.0572 67.3117 22.2991 67.2135 22.5928C67.1147 22.886 67.1371 23.2065 67.2749 23.4836C69.5211 27.9925 70.6826 32.9639 70.666 38.001C70.666 56.0419 56.0414 70.6666 38.0004 70.6666C19.96 70.6666 5.33537 56.0419 5.33537 38.001C5.31988 32.9634 6.48249 27.992 8.73026 23.4836C8.91931 23.1098 8.89368 22.6633 8.66297 22.3141C8.43173 21.9643 8.03174 21.7656 7.61358 21.7929C7.19543 21.8196 6.82427 22.069 6.64056 22.4455C4.23204 27.2764 2.9856 32.6034 3.00162 38.001C3.00162 57.3305 18.6714 72.9998 38.0004 72.9998C57.33 72.9998 72.9993 57.3305 72.9993 38.001C73.0169 32.6034 71.772 27.2764 69.3641 22.4455C69.2268 22.1683 68.9844 21.9568 68.6912 21.858C68.3974 21.7592 68.077 21.7816 67.7999 21.9194Z" fill="white"/>
<path d="M63.21 25.8265C63.0284 25.451 62.66 25.2016 62.2445 25.1712C61.829 25.1413 61.4285 25.3351 61.1946 25.6801C60.9606 26.0251 60.9281 26.4684 61.1102 26.8438C61.9694 28.6147 62.621 30.4801 63.0514 32.4016L60.7764 32.8026C60.1804 32.9073 59.7628 33.4499 59.8157 34.0533C59.868 34.6563 60.3732 35.1187 60.9783 35.1182C61.0466 35.1182 61.115 35.1123 61.1823 35.1011L63.4493 34.7006C63.7409 36.8928 63.7409 39.1139 63.4493 41.3061L61.1833 40.9061C60.5489 40.794 59.9433 41.2175 59.8312 41.8525C59.7195 42.4869 60.143 43.092 60.7775 43.2041L63.0455 43.6046C62.5628 45.7616 61.8018 47.8465 60.7812 49.8075L58.7978 48.6593C58.4368 48.4478 57.9898 48.4457 57.6266 48.6545C57.2635 48.8628 57.0403 49.25 57.0413 49.6687C57.0419 50.0873 57.2672 50.4729 57.6309 50.6801L59.6143 51.8267C58.4213 53.6868 56.9954 55.3861 55.3703 56.883L53.8969 55.1271C53.632 54.7965 53.2096 54.6352 52.792 54.7057C52.3744 54.7762 52.0278 55.0673 51.8862 55.4667C51.7447 55.8657 51.8307 56.31 52.1105 56.6277L53.5829 58.3773C51.828 59.7236 49.9066 60.837 47.8665 61.691L47.0788 59.5254C46.9421 59.126 46.6003 58.8317 46.1854 58.7553C45.7699 58.6795 45.3459 58.8339 45.0767 59.1591C44.8075 59.4843 44.7349 59.9297 44.8871 60.3233L45.6754 62.5006C43.5648 63.1617 41.3774 63.5462 39.1681 63.6434V61.3337C39.1681 60.6896 38.6458 60.1674 38.0012 60.1674C37.3572 60.1674 36.8349 60.6896 36.8349 61.3337V63.6381C34.6255 63.5419 32.4381 63.1596 30.3276 62.5006L31.1174 60.3318C31.2691 59.9377 31.1965 59.4923 30.9273 59.1671C30.6582 58.8419 30.2341 58.6881 29.8192 58.7639C29.4037 58.8397 29.0619 59.134 28.9252 59.5334L28.1375 61.699C26.0975 60.845 24.176 59.7316 22.4211 58.3858L23.8935 56.6357C24.1733 56.318 24.2593 55.8737 24.1178 55.4747C23.9763 55.0758 23.6297 54.7848 23.212 54.7143C22.795 54.6438 22.372 54.8051 22.1071 55.1356L20.6337 56.891C19.0091 55.3941 17.5827 53.6948 16.3897 51.8353L18.3731 50.6881C18.7368 50.4815 18.9622 50.0954 18.9632 49.6767C18.9638 49.258 18.7405 48.8708 18.3774 48.6625C18.0142 48.4537 17.5672 48.4559 17.2062 48.6679L15.2228 49.8155C14.2017 47.8513 13.4402 45.7622 12.9585 43.6009L15.2265 43.2009C15.6372 43.1283 15.9779 42.842 16.12 42.4506C16.2626 42.0586 16.1851 41.6207 15.9171 41.3013C15.649 40.982 15.2314 40.8303 14.8207 40.9024L12.5547 41.3029C12.2642 39.1107 12.2642 36.8896 12.5547 34.6974L14.8228 35.0974C14.8901 35.1091 14.9585 35.115 15.0268 35.115C15.6324 35.115 16.1371 34.6525 16.19 34.0496C16.2423 33.4467 15.8252 32.9035 15.2287 32.7994L12.9505 32.4016C13.3788 30.4811 14.0298 28.6173 14.8906 26.8481C15.0727 26.4732 15.0412 26.0294 14.8079 25.6839C14.5739 25.3383 14.1734 25.1434 13.7574 25.1733C13.3414 25.2027 12.9729 25.4521 12.7908 25.8275C10.9435 29.6192 9.98975 33.7836 10.0026 38.001C10.0047 39.6228 10.1473 41.241 10.4293 42.8378V42.8639C10.4293 42.873 10.4378 42.881 10.4399 42.8917C11.0039 46.074 12.1195 49.133 13.7355 51.9319C13.7462 51.9538 13.7462 51.9784 13.759 52.0008C13.7788 52.0297 13.8001 52.0574 13.8231 52.0836C15.4375 54.844 17.5101 57.3102 19.9512 59.3759C19.9747 59.3994 19.9854 59.4288 20.0099 59.4496C20.034 59.4704 20.0633 59.4763 20.0879 59.495C30.46 68.1683 45.5547 68.1683 55.9268 59.495C55.9514 59.4763 55.9802 59.4694 56.0048 59.4496C56.0293 59.4298 56.04 59.3994 56.063 59.3759C58.5046 57.3102 60.5767 54.844 62.1916 52.0836C62.2124 52.0569 62.2322 52.0297 62.2498 52.0008C62.2626 51.9784 62.2626 51.9538 62.2733 51.9319C63.8877 49.133 65.0017 46.0735 65.5641 42.8917C65.5641 42.881 65.5726 42.8741 65.5747 42.8639C65.5769 42.8532 65.5747 42.8463 65.5747 42.8378C65.8562 41.241 65.9988 39.6228 66.0004 38.001C66.01 33.7831 65.0557 29.6187 63.21 25.8265Z" fill="white"/>
<path d="M8.3037 8.30354C5.4327 11.1756 7.61532 17.52 10.4874 20.3862C11.8433 21.7613 13.6724 22.5677 15.6019 22.6414H15.855C16.4061 22.6356 16.9541 22.5651 17.4886 22.4316L32.249 37.201C32.2036 37.4653 32.1769 37.7329 32.1683 38.001C32.1769 38.2696 32.2036 38.5371 32.249 38.8015L30.5737 40.4778C29.206 41.845 29.206 44.0618 30.5737 45.4289C31.9408 46.7961 34.1576 46.7961 35.5248 45.4289L37.2 43.7536C37.4649 43.799 37.7325 43.8257 38.0011 43.8343C38.2703 43.8257 38.5378 43.799 38.8027 43.7536L40.4839 45.4348C41.8617 46.7816 44.0641 46.7768 45.4349 45.423C46.7791 44.0479 46.7764 41.8503 45.4291 40.4778L43.7538 38.8015C43.7992 38.5371 43.8259 38.2696 43.8344 38.001C43.8259 37.7329 43.7992 37.4653 43.7538 37.201L58.7779 22.1758C60.1077 22.823 61.7023 22.5523 62.7442 21.5029L70.9935 13.2536C71.3161 12.9657 71.4533 12.523 71.3503 12.1032C71.2467 11.6835 70.9193 11.3556 70.4995 11.2509C70.0803 11.1462 69.6371 11.2819 69.3487 11.6039L61.1004 19.8522C60.6454 20.3045 59.9106 20.3045 59.4556 19.8522L58.6294 19.026L67.7028 9.95319C68.0056 9.66001 68.1273 9.22637 68.0205 8.81836C67.9137 8.41089 67.5954 8.09206 67.1874 7.98526C66.7794 7.87845 66.3458 8.00021 66.0531 8.30354L56.9798 17.3763L56.1542 16.5502C55.7018 16.0952 55.7018 15.3603 56.1542 14.9053L64.4019 6.65603C64.8441 6.19836 64.8382 5.471 64.388 5.0208C63.9378 4.57061 63.2104 4.56473 62.7528 5.00638L54.5045 13.2557C53.4541 14.2971 53.1822 15.8917 53.8279 17.2225L38.8027 32.2483C38.5378 32.2034 38.2703 32.1767 38.0011 32.1682C37.7325 32.1767 37.4649 32.2034 37.2 32.2483L22.4467 17.4954C22.5967 16.8765 22.6624 16.2399 22.6416 15.6033C22.5674 13.6728 21.7604 11.8437 20.3853 10.4872C17.5132 7.61517 11.1688 5.42988 8.3037 8.30354ZM15.6825 20.3104C14.3437 20.2554 13.0764 19.6925 12.137 18.7365C9.8727 16.4711 8.36084 11.5468 9.95334 9.95319C10.5285 9.47256 11.2687 9.23598 12.0158 9.29419C14.5183 9.43357 16.8943 10.4386 18.7367 12.1369C19.6926 13.0763 20.255 14.3435 20.3105 15.6824C20.3767 16.9288 19.9105 18.1448 19.0277 19.0276C18.1455 19.9104 16.929 20.3766 15.6825 20.3104ZM33.8751 43.7793C33.6562 43.9988 33.3587 44.1221 33.049 44.1221C32.7392 44.1221 32.4418 43.9988 32.2228 43.7793C32.0038 43.5608 31.8805 43.2634 31.8805 42.9536C31.8805 42.6434 32.0038 42.3464 32.2228 42.1275L33.1387 41.2116C33.5734 41.8669 34.1352 42.4281 34.791 42.8623L33.8751 43.7793ZM43.7741 42.1227C44.0699 42.4169 44.1863 42.8463 44.0795 43.25C43.9727 43.6532 43.6593 43.9688 43.2566 44.0783C42.8539 44.1873 42.4235 44.0735 42.1276 43.7793L41.2118 42.8639C41.8675 42.4287 42.4288 41.8669 42.8641 41.2116L43.7741 42.1227ZM55.3232 19.0239L56.9755 20.6756L42.8593 34.7919C42.4246 34.1361 41.8627 33.5738 41.2075 33.1385L55.3232 19.0239ZM41.5012 38.001C41.5012 39.9342 39.9343 41.501 38.0011 41.501C36.0684 41.501 34.5015 39.9342 34.5015 38.001C34.5015 36.0683 36.0684 34.5014 38.0011 34.5014C39.9343 34.5014 41.5012 36.0683 41.5012 38.001ZM34.791 33.1396C34.1352 33.5743 33.5734 34.1361 33.1387 34.7919L19.7695 21.4212C20.4227 20.9838 20.985 20.4246 21.4261 19.7736L34.791 33.1396Z" fill="white"/>
<path d="M45.5842 17.1723C45.8753 17.2775 46.1962 17.2631 46.4766 17.1317C46.757 17.0004 46.9733 16.7632 47.0785 16.4722L47.8673 14.3056C48.3014 14.4877 48.7329 14.6816 49.1586 14.8893C49.7385 15.1707 50.437 14.9288 50.7185 14.3489C50.9999 13.7689 50.758 13.0709 50.1786 12.7889C49.3327 12.3799 48.4718 12.0215 47.6002 11.7016C47.5922 11.7016 47.5863 11.6915 47.5778 11.6877C47.5698 11.6845 47.5639 11.6877 47.557 11.6877C41.3829 9.43996 34.6145 9.43996 28.4405 11.6877H28.4266L28.4127 11.6973C27.5326 12.0172 26.6696 12.382 25.8264 12.7889C25.2464 13.0709 25.005 13.7694 25.2864 14.3494C25.5684 14.9294 26.2669 15.1707 26.8469 14.8893C27.2731 14.6816 27.7035 14.4872 28.1371 14.3056L28.9259 16.4733C29.0626 16.8727 29.4044 17.167 29.8199 17.2433C30.2349 17.3192 30.6589 17.1648 30.928 16.8396C31.1977 16.5144 31.2704 16.069 31.1182 15.6754L30.3305 13.5115C32.4394 12.8471 34.6257 12.4632 36.8345 12.3681V14.6687C36.8345 15.3128 37.3568 15.8351 38.0009 15.8351C38.6455 15.8351 39.1677 15.3128 39.1677 14.6687V12.3681C41.3771 12.4637 43.564 12.8493 45.6729 13.5147L44.8841 15.6765C44.7784 15.9675 44.7928 16.289 44.9242 16.5694C45.0555 16.8503 45.2926 17.0671 45.5842 17.1723Z" fill="white"/>
</g>
<defs>
<filter id="filter0_dd" x="0" y="0" width="82" height="82" filterUnits="userSpaceOnUse" color-interpolation-filters="sRGB">
<feFlood flood-opacity="0" result="BackgroundImageFix"/>
<feColorMatrix in="SourceAlpha" type="matrix" values="0 0 0 0 0 0 0 0 0 0 0 0 0 0 0 0 0 0 127 0"/>
<feOffset dx="3" dy="3"/>
<feGaussianBlur stdDeviation="3"/>
<feColorMatrix type="matrix" values="0 0 0 0 0 0 0 0 0 0 0 0 0 0 0 0 0 0 0.99 0"/>
<feBlend mode="normal" in2="BackgroundImageFix" result="effect1_dropShadow"/>
<feColorMatrix in="SourceAlpha" type="matrix" values="0 0 0 0 0 0 0 0 0 0 0 0 0 0 0 0 0 0 127 0"/>
<feOffset dx="3" dy="3"/>
<feGaussianBlur stdDeviation="2"/>
<feColorMatrix type="matrix" values="0 0 0 0 0 0 0 0 0 0 0 0 0 0 0 0 0 0 1 0"/>
<feBlend mode="normal" in2="effect1_dropShadow" result="effect2_dropShadow"/>
<feBlend mode="normal" in="SourceGraphic" in2="effect2_dropShadow" result="shape"/>
</filter>
</defs>
</svg>
