<svg width="69" height="82" viewBox="0 0 69 82" fill="none" xmlns="http://www.w3.org/2000/svg">
<g clip-path="url(#clip0)" filter="url(#filter0_dd)">
<path d="M59.997 5.34053H58.0972V7.67363H59.997V5.34053Z" fill="white"/>
<path d="M58.0971 3.00758H56.1973V5.34068H58.0971V3.00758Z" fill="white"/>
<path d="M56.1972 5.34053H54.2974V7.67363H56.1972V5.34053Z" fill="white"/>
<path d="M58.0971 7.67363H56.1973V10.0067H58.0971V7.67363Z" fill="white"/>
<path d="M52.3974 5.34053H50.4976V7.67363H52.3974V5.34053Z" fill="white"/>
<path d="M50.4979 28.6715H48.5981V31.0046H50.4979V28.6715Z" fill="white"/>
<path d="M54.2973 28.6715H52.3975V31.0046H54.2973V28.6715Z" fill="white"/>
<path d="M52.3974 26.3384H50.4976V28.6715H52.3974V26.3384Z" fill="white"/>
<path d="M52.3974 31.0046H50.4976V33.3377H52.3974V31.0046Z" fill="white"/>
<path d="M15.3524 25.1718H13.4526V27.5049H15.3524V25.1718Z" fill="white"/>
<path d="M13.4525 22.8387H11.5527V25.1718H13.4525V22.8387Z" fill="white"/>
<path d="M11.5517 25.1718H9.65186V27.5049H11.5517V25.1718Z" fill="white"/>
<path d="M13.4525 27.5049H11.5527V29.838H13.4525V27.5049Z" fill="white"/>
<path d="M7.75234 25.1718H5.85254V27.5049H7.75234V25.1718Z" fill="white"/>
<path d="M4.90322 10.0067H3.00342V12.3398H4.90322V10.0067Z" fill="white"/>
<path d="M8.70205 10.0067H6.80225V12.3398H8.70205V10.0067Z" fill="white"/>
<path d="M6.80215 7.67363H4.90234V10.0067H6.80215V7.67363Z" fill="white"/>
<path d="M6.80215 12.3398H4.90234V14.6729H6.80215V12.3398Z" fill="white"/>
<path d="M18.2021 3.00758H16.3022V5.34068H18.2021V3.00758Z" fill="white"/>
<path d="M54.1336 57.8238C53.7297 56.429 52.6534 55.4986 51.4479 55.5021H49.1501L45.7485 48.1925V35.6708C45.7485 33.0937 44.0474 31.0046 41.9489 31.0046V15.8395C42.1416 8.9892 37.776 3.2441 32.1979 3.00744C31.9653 2.99752 31.7326 2.99752 31.5 3.00744C24.9684 3.00744 21.241 9.5961 21.051 15.7951C21.051 15.8103 21.0577 15.8243 21.0577 15.8395H21.051V31.0046C18.9526 31.0046 17.2514 33.0937 17.2514 35.6708V48.1925L13.8498 55.5021H11.5521C9.98194 55.4981 8.70646 57.058 8.70313 58.9863C8.70064 60.4662 9.45819 61.7873 10.5937 62.2832C9.22166 64.1878 9.36664 67.0977 10.9176 68.7826C11.478 69.3916 12.1742 69.7806 12.9162 69.8996L31.3719 72.9898C31.4573 73.0035 31.5438 73.0035 31.6293 72.9898L50.0849 69.8996C52.1382 69.5702 53.5852 67.2591 53.317 64.7376C53.2201 63.8264 52.9033 62.9715 52.4075 62.2832C53.8868 61.6372 54.6597 59.6407 54.1336 57.8238ZM31.5001 5.34068C36.0121 5.08345 39.8398 9.36687 40.0492 14.9081C40.061 15.2184 40.061 15.5293 40.0492 15.8396H38.1494C35.5277 15.8358 33.403 13.2265 33.3999 10.0069C33.3998 9.36264 32.9745 8.84047 32.4498 8.84061C32.1979 8.84061 31.9565 8.96354 31.7784 9.18212C29.4235 12.0852 26.3615 13.9653 23.0574 14.5366C23.5797 9.29469 27.1998 5.35161 31.5001 5.34068ZM29.6003 32.1713V27.1819C30.2195 27.3905 30.8581 27.4991 31.5001 27.5051C32.1425 27.4984 32.7813 27.3873 33.3999 27.1749V32.1713C33.3999 32.8155 33.8252 33.3378 34.3498 33.3378H36.2496V34.8298L31.5001 36.7745L26.7506 34.8298V33.3378H28.6504C29.175 33.3378 29.6003 32.8155 29.6003 32.1713ZM24.0833 16.6784C26.9036 16.0376 29.5486 14.5407 31.7775 12.3236C32.6164 15.7877 35.2066 18.1654 38.1494 18.1727H38.5636C37.3762 22.0865 34.365 25.172 31.5001 25.172C28.2011 25.172 24.8688 21.2454 24.0833 16.6784ZM35.2997 31.0047V26.2394C37.3969 24.7899 39.0612 22.5543 40.0492 19.8595V31.0047H37.1995H35.2997ZM22.951 19.863C23.933 22.5634 25.5988 24.8022 27.7005 26.2464V31.0047H22.951V19.863ZM24.8508 33.3378V35.6709C24.8511 36.1728 25.1127 36.6182 25.5005 36.7768V36.778L31.1999 39.1111C31.395 39.1916 31.6061 39.1916 31.8012 39.1111L37.5006 36.778C37.8883 36.6189 38.1497 36.173 38.1494 35.6709V33.3378H40.7322L36.4576 54.3357H26.5425L22.268 33.3378H24.8508ZM26.2376 56.6688H36.7626L40.5793 62.1364L31.5001 63.6576L22.4209 62.141L26.2376 56.6688ZM20.1848 61.7619L18.4323 61.4691L24.3834 53.3476L24.7634 55.2013L20.1848 61.7619ZM38.2444 55.2013L38.6244 53.3476L44.5755 61.4691L42.8191 61.7619L38.2444 55.2013ZM10.6022 59.0019C10.6022 58.3576 11.0275 57.8353 11.5521 57.8353H14.4018C14.7419 57.8362 15.0563 57.6137 15.2264 57.252L19.026 49.0862C19.1087 48.9086 19.1519 48.7075 19.1514 48.5029V35.6709C19.1514 34.718 19.6233 33.8607 20.3435 33.5058L22.0856 42.0624L23.8268 50.6191L16.8288 60.1684H11.5521C11.0274 60.1684 10.6022 59.6461 10.6022 59.0019ZM31.5001 70.6569L13.1727 67.5865C12.147 67.4201 11.4254 66.2642 11.5609 65.0046C11.6844 63.8566 12.4834 63.0004 13.4263 63.0055C13.5108 63.0055 13.5953 63.0129 13.679 63.0276L20.4337 64.1592L31.1676 65.9568L36.2525 69.8601L31.5001 70.6569ZM49.8275 67.5865L39.1943 69.3678L34.2273 65.5555L42.5598 64.1557L49.3136 63.0241C50.3387 62.8475 51.2861 63.7249 51.4299 64.9838C51.4421 65.0908 51.4482 65.1989 51.4481 65.3071C51.4447 66.4561 50.7542 67.4274 49.8275 67.5865ZM51.4481 60.1684H46.1713L39.1725 50.6179L40.9136 42.0613L42.6558 33.5046C43.3766 33.8594 43.8491 34.7173 43.8488 35.6709V48.5029C43.8482 48.7075 43.8915 48.9086 43.9742 49.0862L47.7738 57.252C47.9439 57.6137 48.2583 57.8362 48.5984 57.8353H51.4481C51.9726 57.8353 52.398 58.3576 52.398 59.0019C52.398 59.6461 51.9726 60.1684 51.4481 60.1684Z" fill="white"/>
</g>
<defs>
<filter id="filter0_dd" x="0" y="0" width="69" height="82" filterUnits="userSpaceOnUse" color-interpolation-filters="sRGB">
<feFlood flood-opacity="0" result="BackgroundImageFix"/>
<feColorMatrix in="SourceAlpha" type="matrix" values="0 0 0 0 0 0 0 0 0 0 0 0 0 0 0 0 0 0 127 0"/>
<feOffset dx="3" dy="3"/>
<feGaussianBlur stdDeviation="3"/>
<feColorMatrix type="matrix" values="0 0 0 0 0 0 0 0 0 0 0 0 0 0 0 0 0 0 0.99 0"/>
<feBlend mode="normal" in2="BackgroundImageFix" result="effect1_dropShadow"/>
<feColorMatrix in="SourceAlpha" type="matrix" values="0 0 0 0 0 0 0 0 0 0 0 0 0 0 0 0 0 0 127 0"/>
<feOffset dx="3" dy="3"/>
<feGaussianBlur stdDeviation="2"/>
<feColorMatrix type="matrix" values="0 0 0 0 0 0 0 0 0 0 0 0 0 0 0 0 0 0 1 0"/>
<feBlend mode="normal" in2="effect1_dropShadow" result="effect2_dropShadow"/>
<feBlend mode="normal" in="SourceGraphic" in2="effect2_dropShadow" result="shape"/>
</filter>
<clipPath id="clip0">
<rect width="57" height="70" fill="white" transform="translate(3 3)"/>
</clipPath>
</defs>
</svg>
