<svg width="30" height="30" viewBox="0 0 30 30" fill="none" xmlns="http://www.w3.org/2000/svg">
<path d="M28.7476 8.99074C27.9451 7.15723 26.8002 5.52445 25.3449 4.13807C25.157 3.95906 24.8597 3.96621 24.6807 4.15418C24.5018 4.34203 24.509 4.63934 24.6969 4.81822C27.5108 7.49895 29.0605 11.1149 29.0605 15C29.0605 22.753 22.753 29.0606 14.9999 29.0606C7.24687 29.0606 0.939434 22.753 0.939434 15C0.939434 7.24699 7.24699 0.939434 15 0.939434C17.8322 0.939434 20.5623 1.77768 22.895 3.3634C23.1096 3.50924 23.4017 3.45352 23.5476 3.23906C23.6934 3.02449 23.6377 2.73234 23.4232 2.5865C20.934 0.894434 18.0214 0 15 0C10.9934 0 7.22654 1.56023 4.39342 4.39342C1.56029 7.22654 0 10.9934 0 15C0 19.0066 1.56029 22.7735 4.39342 25.6066C7.22654 28.4398 10.9934 30 15 30C19.0066 30 22.7735 28.4398 25.6066 25.6066C28.4397 22.7735 30 19.0066 30 15C30 12.911 29.5786 10.8892 28.7476 8.99074Z" fill="#5E1B7E"/>
<path d="M21.8164 6.35988L12.7826 10.5652C12.5474 10.6747 12.4456 10.9542 12.5551 11.1893C12.6646 11.4245 12.944 11.5266 13.1791 11.417L18.7517 8.82281L16.0425 11.016L9.8253 16.049L6.42475 14.5612L11.1899 12.3429C11.4251 12.2334 11.527 11.954 11.4175 11.7188C11.3081 11.4836 11.0285 11.3816 10.7935 11.4912L5.6642 13.879C5.39151 14.0059 5.21936 14.2836 5.22628 14.5842C5.23301 14.8783 5.41079 15.143 5.68026 15.2609L9.47725 16.922L10.5893 23.5943C10.6577 24.0068 11.2164 24.1243 11.4455 23.7745L14.6 18.9598L20.5655 21.7437C21.0434 21.9669 21.6122 21.6258 21.643 21.1011L22.4835 6.8131C22.4844 6.79986 22.4843 6.78626 22.484 6.77296C22.4746 6.44044 22.1174 6.22066 21.8164 6.35988ZM11.1339 21.1477L10.4071 16.7867L17.8115 10.7926L12.1444 17.1466C12.0935 17.2038 12.0556 17.2757 12.038 17.3504L11.1339 21.1477ZM12.1318 21.0129L12.8185 18.1285L13.7398 18.5584L12.1318 21.0129ZM14.26 17.7645L13.2659 17.3006L18.1566 11.8171L17.4492 12.8968L14.26 17.7645ZM20.7209 20.7796L15.1202 18.1659L21.4423 8.51648L20.7209 20.7796Z" fill="#5E1B7E"/>
</svg>
